# Busto de Nefertiti - Digitalizado por Fraunhofer IGD (CC BY-NC)
# Otimizado para Computacao Grafica Didatica AP1
# Vertices: 452, Faces: 894
v -0.1397 0.8481 0.3146
v -0.1656 0.9521 0.3618
v -0.2352 1.1648 0.2258
v 0.1458 1.3739 -0.4148
v 0.2151 1.3439 -0.3262
v -0.2403 1.1526 0.1076
v -0.0016 0.0627 -0.0940
v 0.3772 0.2799 0.3437
v 0.3817 0.2672 0.2341
v 0.3755 0.2807 -0.0131
v 0.3590 0.0433 0.1036
v 0.3639 0.0715 0.0009
v 0.3761 0.2454 0.1076
v 0.3644 0.0463 0.3339
v 0.3769 0.4671 0.1196
v 0.3594 0.0432 0.2244
v 0.3673 0.0594 0.4372
v 0.3733 0.4289 0.2284
v 0.3556 0.0789 -0.0673
v 0.3739 0.4228 0.0038
v 0.3583 0.2552 -0.0658
v 0.3603 0.3806 0.2976
v 0.3597 0.2066 0.4058
v -0.1369 0.9833 0.4513
v -0.1143 0.9029 0.4303
v -0.0620 0.8933 0.5412
v -0.0708 0.8622 0.4267
v -0.1022 0.9108 0.4987
v -0.0005 0.8318 0.4335
v 0.0017 0.8801 0.5637
v -0.0721 0.8091 0.3488
v -0.2092 1.1936 0.3190
v 0.2128 1.1583 -0.1085
v -0.3878 0.3056 0.2192
v -0.3843 0.4315 0.2183
v 0.1480 0.0385 -0.0878
v 0.0718 1.2421 0.4864
v 0.0630 1.5040 0.4044
v 0.0632 1.5880 0.3641
v -0.2122 1.0000 0.3084
v -0.2276 1.0167 0.2347
v -0.0005 0.0488 0.4690
v -0.2384 1.1720 0.0092
v -0.3858 0.2860 0.3358
v 0.2866 0.0548 -0.0781
v -0.2908 0.0657 0.4493
v -0.2192 0.0695 0.4523
v 0.0632 1.9699 0.1146
v -0.0698 0.9793 0.5522
v -0.1443 0.0623 0.4572
v 0.2374 1.1900 0.3261
v 0.0654 1.1648 0.5519
v -0.2881 1.7874 -0.2290
v -0.2844 1.3618 -0.1022
v -0.2128 1.1979 -0.1099
v 0.0074 1.5117 0.4080
v 0.1520 1.2286 0.4715
v 0.2199 0.0455 0.4663
v 0.2902 0.0516 0.4568
v 0.0771 0.7853 0.3465
v -0.3742 0.2825 -0.0121
v 0.0678 1.2392 -0.3128
v 0.0641 1.1643 -0.2366
v -0.0006 1.1495 -0.2225
v 0.0145 1.2431 -0.3230
v -0.3821 0.4569 0.1214
v -0.0710 1.1598 -0.2197
v -0.0692 1.7861 -0.2256
v -0.0846 1.8507 -0.1175
v 0.0670 1.6879 0.3079
v -0.0062 1.0494 -0.1049
v 0.0006 1.0941 -0.1569
v -0.3640 0.0690 0.4372
v 0.2552 1.3294 0.2831
v 0.2704 1.3606 0.2389
v -0.3732 0.0638 0.0002
v 0.2954 1.9035 0.0152
v -0.2743 1.3472 -0.0027
v -0.3826 0.0691 0.3374
v -0.2768 1.6077 -0.4574
v -0.2242 0.5288 0.0933
v -0.2211 0.4864 0.0032
v 0.2900 1.7369 0.1129
v 0.2236 1.9281 0.0290
v 0.2158 1.9202 0.0979
v -0.3779 0.0581 0.2186
v -0.3754 0.0764 0.1107
v -0.2633 1.3691 0.0970
v -0.2693 1.5363 0.1097
v -0.3808 0.2494 0.1164
v 0.1423 1.6643 0.3003
v 0.1435 1.5769 0.3392
v 0.1512 1.7199 0.2503
v 0.0121 1.9711 0.1223
v -0.3744 0.4398 0.0068
v -0.2164 1.7187 -0.3409
v -0.0733 1.0502 -0.0896
v 0.0720 0.2710 0.4337
v 0.0024 0.2729 0.4350
v 0.2398 1.5338 0.2655
v 0.2158 1.5191 0.3037
v -0.1411 1.7868 -0.2287
v 0.0770 1.0566 -0.1016
v -0.1327 1.0746 -0.0827
v -0.2610 1.1220 0.2395
v 0.2766 1.8754 0.0741
v -0.1951 1.0665 0.0179
v -0.1432 1.0143 -0.0020
v 0.0004 0.7812 0.3697
v -0.2974 1.5381 -0.3257
v -0.2746 1.3986 -0.2168
v -0.2361 1.3347 -0.2377
v 0.0712 1.3420 0.4720
v -0.2572 1.2398 0.0097
v -0.2918 0.0701 -0.0972
v 0.0206 1.6431 -0.4576
v 0.0682 1.6505 -0.4396
v -0.3165 1.5473 -0.2254
v 0.2124 1.5501 -0.5409
v -0.0768 1.2427 -0.3040
v 0.2941 1.7062 -0.3353
v 0.0833 1.2998 -0.3680
v 0.0780 1.3619 -0.4314
v -0.0736 1.5532 -0.5592
v -0.0489 1.6259 -0.4851
v 0.0691 0.0569 -0.0910
v 0.2773 1.5605 0.2061
v -0.0029 1.5467 -0.5696
v 0.2161 0.0467 -0.0854
v 0.2217 1.7706 -0.2409
v 0.2876 1.7684 -0.2393
v 0.3700 1.6947 -0.3313
v 0.3658 1.8441 -0.0948
v 0.3428 1.8693 -0.0297
v 0.0672 0.2793 -0.1128
v 0.1438 0.2792 -0.1064
v -0.2951 1.7189 -0.3360
v 0.0557 1.8687 0.1996
v -0.1401 0.0797 -0.1001
v 0.1419 1.3081 -0.3504
v -0.1417 1.9007 -0.0360
v -0.3639 0.2598 -0.0907
v -0.2201 0.0802 -0.0997
v -0.0758 1.7168 -0.3397
v 0.0024 1.7263 -0.3236
v -0.0850 1.7445 0.2403
v 0.0168 1.4390 -0.5227
v 0.3820 1.7472 -0.2250
v 0.3790 1.7668 -0.1324
v -0.0694 0.0712 -0.0966
v -0.2977 1.7376 -0.0023
v -0.2905 1.5364 0.0063
v -0.2516 1.3662 0.1556
v -0.2328 1.3517 0.2319
v -0.2187 1.5430 0.2290
v 0.0739 0.0537 0.4729
v -0.0061 0.4213 0.3425
v -0.0747 0.4308 0.3370
v 0.1444 1.3450 0.4448
v -0.2893 0.2519 0.4271
v -0.2199 0.2742 0.4284
v -0.3580 0.0721 -0.0884
v -0.1468 1.9248 0.1066
v -0.1455 1.7074 0.2278
v -0.1102 1.8489 0.1687
v -0.0041 1.7725 0.2534
v 0.2743 1.6431 0.1842
v -0.3327 1.6293 -0.2941
v -0.3047 1.5280 -0.1082
v -0.0726 0.0568 0.4629
v -0.0029 1.5968 0.3633
v -0.0778 1.5710 0.3451
v -0.1464 1.5362 0.3173
v 0.1529 0.6187 0.2214
v 0.1642 0.8012 0.2366
v 0.1441 0.8415 0.3098
v -0.0689 0.6603 0.2966
v 0.0026 0.5659 0.2738
v 0.0008 0.6596 0.3144
v -0.3343 1.8442 -0.1276
v -0.3310 1.7257 -0.1393
v -0.2965 1.8544 -0.1052
v -0.3450 1.7449 -0.2200
v 0.0122 1.8668 0.1950
v -0.0694 1.9602 0.1133
v -0.0751 1.6673 0.3027
v -0.2059 1.6629 0.1967
v -0.0593 1.4777 0.4013
v -0.1880 1.4817 0.2940
v -0.2020 1.3598 0.3147
v -0.1604 1.3989 0.3660
v -0.1377 1.3287 0.4331
v 0.0663 1.7607 0.2555
v 0.2197 1.6860 0.2247
v 0.0016 1.6852 0.3133
v -0.0617 1.8400 0.1902
v 0.1491 1.8373 0.1838
v -0.1443 0.2764 0.4332
v -0.3646 0.2385 0.4150
v 0.1488 1.9255 0.1276
v 0.2409 1.7883 0.1556
v 0.2851 0.2328 0.4138
v 0.2937 0.3234 0.3648
v -0.1468 0.4252 0.3337
v -0.0762 0.2748 0.4342
v -0.2472 1.6035 0.1607
v -0.1653 0.8144 0.2259
v -0.1663 0.6278 0.1051
v -0.1510 0.6243 0.2286
v 0.1478 0.0604 0.4720
v 0.2515 1.4281 0.2770
v 0.2253 1.3775 0.3351
v 0.2095 0.4903 0.2271
v 0.2150 0.5261 0.1169
v -0.1631 1.8087 0.1612
v -0.2265 1.7388 0.1311
v -0.0059 1.3399 0.4765
v -0.0228 1.2438 0.4816
v -0.1999 1.8927 0.0889
v -0.2213 1.9204 0.0018
v -0.2855 1.8818 -0.0156
v -0.2565 1.2270 0.0919
v -0.3297 1.6161 -0.2308
v -0.3400 1.6904 -0.3221
v 0.1334 0.9985 0.5294
v 0.1324 1.1336 0.5155
v -0.1503 1.1825 0.4559
v -0.0761 0.5684 0.2734
v 0.0781 0.5166 0.2727
v -0.1953 0.5556 0.1225
v -0.2833 0.5107 0.1026
v 0.1457 0.2643 0.4287
v 0.1550 0.5076 0.2455
v 0.1461 0.4190 0.3272
v 0.0654 0.3567 0.3873
v 0.0013 0.5186 0.2694
v -0.0691 0.5252 0.2741
v 0.2162 0.2531 0.4197
v -0.2151 0.4111 0.3361
v -0.2902 0.3444 0.3798
v -0.2185 0.5034 0.2235
v -0.2885 0.4830 0.2275
v 0.2900 0.4630 0.2226
v 0.2890 0.4964 0.1126
v -0.1121 1.6675 0.2844
v 0.1684 1.4364 0.3830
v 0.1967 1.3070 0.4200
v -0.0729 1.3489 0.4586
v -0.1798 1.2625 0.3875
v -0.3399 1.8199 -0.1760
v 0.2043 1.1719 0.4422
v 0.0055 1.1688 0.5644
v 0.0713 0.9944 0.5829
v 0.1168 0.7057 0.2820
v -0.1117 0.7040 0.2884
v 0.2928 0.3931 0.3100
v 0.1572 0.3543 0.3780
v 0.2138 0.4053 0.3212
v -0.0831 0.3586 0.3916
v -0.1494 0.5167 0.2560
v -0.1449 0.3609 0.3883
v -0.2247 0.3571 0.3843
v -0.2866 0.4094 0.3242
v -0.3676 0.3997 0.3131
v 0.3117 1.5448 0.1150
v 0.1160 1.4639 0.4011
v -0.0756 1.2393 0.4832
v -0.1766 1.5934 0.2700
v 0.0000 1.0040 0.5965
v -0.2051 1.0279 0.1175
v -0.1885 0.5481 0.1885
v 0.2254 0.3356 0.3750
v -0.0655 1.1428 0.5244
v 0.0694 0.8858 0.5538
v 0.0668 0.6785 0.3059
v 0.0817 0.5891 0.2704
v -0.2605 1.0713 0.2463
v 0.0707 0.4207 0.3392
v -0.2855 0.4661 -0.0023
v 0.0209 1.2772 0.5076
v -0.1176 1.0212 0.5126
v -0.1824 1.1903 0.4075
v -0.1827 0.8901 0.2815
v -0.1861 0.8943 0.2398
v -0.3191 1.7188 -0.0854
v -0.3268 1.6138 -0.1674
v -0.2665 1.7250 0.0782
v 0.3161 1.7980 0.0484
v -0.2555 1.4966 0.1761
v -0.1172 1.1343 0.5076
v 0.1870 1.8201 0.1777
v 0.0365 1.2770 0.5060
v -0.1430 0.8298 0.1121
v 0.1681 0.9651 0.4705
v 0.1950 1.0380 0.4489
v -0.0150 0.8701 0.0583
v 0.0054 0.8366 0.0454
v -0.0008 0.2748 -0.1138
v 0.2199 1.7149 -0.3312
v 0.0156 1.8661 -0.0904
v -0.2093 1.5814 -0.5315
v 0.0755 0.9636 -0.0088
v 0.0064 0.9649 -0.0216
v 0.0726 1.5430 -0.5684
v 0.1512 1.5374 -0.5623
v -0.0030 0.4307 -0.0786
v 0.0634 0.4226 -0.0784
v -0.0785 0.8596 0.0659
v -0.1526 0.9380 0.0968
v 0.2201 1.5544 -0.4760
v 0.2204 1.6517 -0.4282
v -0.2215 1.5798 -0.4714
v -0.2100 1.3829 -0.3321
v -0.1936 1.4287 -0.4065
v -0.1533 1.4107 -0.4288
v 0.1409 0.3912 -0.0755
v 0.0763 0.5041 -0.0438
v -0.2908 0.2667 -0.1058
v -0.2001 1.2487 -0.2019
v -0.2156 1.8533 -0.1155
v -0.1401 1.2075 -0.2241
v 0.2112 0.2763 -0.0961
v -0.0658 0.2662 -0.1175
v -0.1461 0.2711 -0.1170
v -0.2150 1.7889 -0.2249
v -0.2249 1.8205 -0.1728
v -0.3279 1.6695 -0.3922
v -0.0785 1.9204 -0.0050
v 0.0049 0.6358 -0.0101
v -0.0743 0.6368 0.0012
v -0.1464 1.8597 -0.1026
v 0.0023 1.2902 -0.3651
v -0.0680 1.3788 -0.4438
v -0.0063 1.3660 -0.4455
v -0.0756 1.2944 -0.3520
v -0.1501 1.3115 -0.3247
v 0.1479 0.8281 0.1086
v 0.0001 1.9327 0.0081
v -0.1587 1.1293 -0.1213
v -0.0886 1.1094 -0.1553
v 0.0701 0.8041 0.0434
v 0.2881 1.6516 -0.4209
v 0.1459 0.4927 -0.0174
v -0.0717 0.9696 -0.0074
v 0.2156 0.4670 -0.0035
v 0.1514 1.7854 -0.2205
v 0.2226 1.8432 -0.1201
v 0.2962 1.8470 -0.1089
v 0.1434 1.9085 -0.0110
v 0.0652 1.8434 -0.1231
v 0.0752 1.7778 -0.2347
v -0.2141 0.3947 -0.0763
v -0.2153 0.2783 -0.1125
v 0.2885 1.5808 -0.4630
v 0.2695 1.5815 -0.5147
v 0.1509 1.6096 -0.4789
v 0.1374 1.7220 -0.3228
v 0.0721 1.7205 -0.3270
v 0.1415 1.6600 -0.4198
v 0.0697 1.6239 -0.4816
v 0.0137 1.7929 -0.2139
v -0.1423 1.7188 -0.3385
v -0.1433 1.5620 -0.5483
v -0.0793 1.6603 -0.4302
v -0.1439 1.6670 -0.4166
v -0.1572 1.5786 -0.4853
v -0.2290 1.6547 -0.4341
v -0.2620 1.4346 -0.3040
v 0.2108 1.2395 -0.2166
v 0.1486 1.2126 -0.2488
v 0.0656 0.6281 -0.0042
v -0.0051 0.5188 -0.0483
v -0.0738 0.5090 -0.0437
v -0.0713 0.7862 0.0457
v -0.2537 1.2703 -0.0909
v -0.1486 0.5047 -0.0144
v 0.2926 0.2658 -0.0812
v -0.0706 0.4226 -0.0821
v -0.1440 0.4034 -0.0812
v -0.2957 0.3882 -0.0679
v 0.2986 1.8167 -0.1619
v 0.1501 1.8485 -0.1104
v 0.1600 1.8158 -0.1652
v 0.0658 1.9209 0.0027
v -0.1575 1.8206 -0.1711
v -0.2904 1.6579 -0.4226
v 0.0834 0.8537 0.0616
v -0.1344 0.6061 0.0294
v 0.1904 1.8176 -0.1678
v 0.1402 1.0033 -0.0091
v 0.1380 0.6139 0.0362
v -0.2499 1.2866 -0.1554
v 0.2123 0.3864 -0.0619
v 0.2897 0.4365 -0.0077
v -0.3501 0.3842 -0.0628
v 0.3549 1.6519 -0.4063
v 0.3406 1.6174 -0.4306
v 0.2643 0.3649 -0.0616
v -0.2450 1.4557 -0.3624
v 0.0547 1.4386 -0.5213
v -0.1743 1.2812 -0.2788
v -0.2713 1.8205 -0.1704
v -0.1189 1.2511 -0.2916
v 0.1651 0.6251 0.0969
v -0.0388 1.4367 -0.5136
v 0.1390 1.2518 -0.2968
v 0.2885 1.3623 -0.2138
v 0.0076 1.6276 -0.4824
v 0.0703 1.1017 -0.1526
v 0.1393 1.0694 -0.0854
v 0.1506 0.9279 0.0852
v 0.1129 0.7352 0.0460
v 0.3142 1.3700 -0.0011
v 0.2632 1.1359 0.2206
v 0.2317 0.9923 0.2218
v 0.3032 1.3860 0.1067
v 0.3454 1.5123 -0.1054
v 0.2791 1.2202 0.0148
v 0.2051 1.0490 0.0241
v 0.2189 1.0153 0.1108
v 0.3326 1.4277 -0.1101
v 0.3539 1.5516 -0.2222
v 0.3145 1.4582 -0.2601
v 0.2740 1.4316 -0.3301
v 0.2758 1.2009 0.1125
v 0.3543 1.5902 -0.3272
v 0.2704 1.0345 0.2238
v 0.3062 1.4964 -0.3421
v 0.2220 1.4295 -0.4131
v 0.2302 1.2932 -0.2505
v 0.2451 1.1265 0.2641
v 0.2185 0.9986 0.3209
v 0.3048 1.3362 -0.1161
v 0.3288 1.5435 0.0669
v 0.3369 1.5326 -0.0002
v 0.3313 1.4305 -0.0389
v 0.3221 1.5074 0.0484
v 0.2673 1.2417 -0.1006
v 0.2341 1.1187 -0.0050
v 0.2537 1.0832 0.1444
v 0.2517 1.1038 0.0937
v 0.1496 1.1263 -0.1415
v 0.1779 0.9207 0.3661
v 0.1320 0.8865 0.4477
v 0.1852 0.5560 0.1259
v 0.2595 1.2585 0.2922
v 0.3440 1.7169 -0.0088
v 0.0728 0.8456 0.4498
v 0.1823 0.9031 0.1620
v 0.1850 0.8946 0.2295
v 0.1318 1.4523 -0.5100
v 0.1152 0.8976 0.5238
f 14 16 8
f 13 18 9
f 13 15 18
f 8 18 22
f 8 16 9
f 16 11 9
f 11 10 13
f 10 11 12
f 10 19 21
f 13 9 11
f 20 13 10
f 23 14 8
f 12 19 10
f 17 14 23
f 20 15 13
f 8 9 18
f 24 1 25
f 26 28 27
f 1 27 25
f 28 24 27
f 26 29 30
f 29 26 27
f 27 24 25
f 31 29 27
f 63 64 65
f 63 65 62
f 72 71 64
f 153 154 155
f 153 88 154
f 156 98 99
f 47 160 46
f 174 175 176
f 177 178 179
f 180 181 182
f 196 94 185
f 78 54 114
f 91 93 193
f 164 215 216
f 89 78 88
f 152 169 54
f 224 168 223
f 225 57 226
f 153 6 3
f 99 98 235
f 166 196 146
f 245 173 186
f 92 159 246
f 249 227 192
f 206 155 187
f 78 114 222
f 60 254 174
f 43 114 222
f 243 256 18
f 259 158 198
f 241 204 260
f 198 261 204
f 239 204 241
f 83 194 167
f 244 214 243
f 245 186 146
f 215 163 219
f 101 194 92
f 101 92 212
f 39 38 92
f 173 189 191
f 173 268 155
f 78 89 152
f 260 158 237
f 41 3 270
f 3 6 222
f 257 272 234
f 258 213 233
f 158 259 205
f 259 198 205
f 199 46 160
f 171 56 39
f 38 39 56
f 159 92 266
f 159 251 247
f 267 192 227
f 172 171 186
f 172 173 188
f 225 52 253
f 30 274 253
f 276 178 236
f 237 228 209
f 234 258 233
f 157 236 158
f 240 160 161
f 231 279 95
f 95 142 61
f 214 213 243
f 275 276 174
f 237 209 260
f 272 203 258
f 59 58 238
f 262 161 198
f 240 262 263
f 44 160 240
f 243 15 244
f 258 256 243
f 234 272 258
f 58 59 202
f 202 238 58
f 272 257 238
f 207 283 284
f 183 286 181
f 49 28 26
f 76 87 90
f 229 174 276
f 155 268 164
f 250 183 180
f 182 181 285
f 172 56 171
f 118 54 169
f 174 176 60
f 186 173 172
f 227 24 281
f 267 290 273
f 152 54 78
f 152 285 169
f 227 249 32
f 207 1 283
f 83 85 201
f 183 118 286
f 183 223 118
f 196 184 94
f 155 154 190
f 193 138 166
f 166 138 184
f 89 155 206
f 222 43 6
f 165 164 146
f 146 186 166
f 224 223 183
f 106 288 77
f 165 146 196
f 32 190 154
f 200 48 138
f 88 78 222
f 85 200 197
f 291 194 85
f 100 167 194
f 211 75 100
f 223 168 118
f 166 195 193
f 171 70 195
f 215 164 163
f 164 187 155
f 56 188 217
f 192 248 191
f 173 191 172
f 159 212 246
f 249 191 190
f 93 194 291
f 186 195 166
f 171 39 70
f 186 171 195
f 163 165 185
f 70 39 92
f 164 173 245
f 172 188 56
f 248 188 172
f 212 159 247
f 191 189 190
f 268 173 164
f 173 155 189
f 217 280 292
f 248 267 218
f 248 192 267
f 189 155 190
f 154 3 32
f 289 155 89
f 221 182 151
f 88 6 153
f 114 43 6
f 197 93 291
f 77 84 106
f 93 92 194
f 91 193 70
f 48 94 184
f 186 245 164
f 212 92 246
f 57 251 159
f 37 159 113
f 56 217 113
f 280 252 292
f 188 248 217
f 172 191 248
f 282 32 227
f 88 222 6
f 167 127 194
f 194 101 100
f 91 70 92
f 195 70 193
f 266 92 38
f 57 159 37
f 292 113 217
f 292 252 37
f 252 217 218
f 218 217 248
f 56 113 38
f 252 280 217
f 273 252 267
f 57 37 52
f 151 182 285
f 286 118 169
f 221 151 287
f 151 89 287
f 288 106 83
f 85 197 291
f 201 194 83
f 196 185 165
f 153 3 154
f 138 193 93
f 85 194 201
f 165 163 164
f 184 196 166
f 217 113 280
f 215 219 216
f 212 211 101
f 91 92 93
f 187 216 206
f 221 287 219
f 89 216 287
f 206 216 89
f 57 52 226
f 153 89 88
f 153 155 89
f 152 89 151
f 216 219 287
f 190 32 249
f 183 181 180
f 38 113 266
f 252 218 267
f 167 100 127
f 252 52 37
f 93 197 138
f 181 286 169
f 152 151 285
f 285 181 169
f 249 192 191
f 227 290 267
f 83 106 85
f 221 219 220
f 138 197 200
f 216 187 164
f 292 37 113
f 184 138 48
f 266 113 159
f 90 61 76
f 262 239 263
f 90 87 86
f 34 86 44
f 90 86 34
f 198 161 47
f 160 47 161
f 66 90 34
f 34 44 35
f 162 61 142
f 8 22 203
f 256 203 22
f 58 238 210
f 210 232 156
f 158 205 157
f 204 239 198
f 262 161 239
f 198 47 50
f 35 66 34
f 61 90 95
f 245 146 164
f 235 257 234
f 262 198 239
f 42 205 170
f 170 198 50
f 264 35 44
f 263 44 240
f 199 160 44
f 199 79 73
f 23 8 202
f 232 238 257
f 98 232 235
f 98 156 232
f 204 261 158
f 158 261 198
f 262 240 161
f 99 42 156
f 99 205 42
f 205 198 170
f 258 203 256
f 257 235 232
f 278 235 234
f 99 157 205
f 240 263 239
f 44 263 264
f 238 202 272
f 23 202 17
f 235 278 99
f 238 232 210
f 17 202 59
f 202 8 203
f 202 203 272
f 278 157 99
f 61 162 76
f 95 90 66
f 86 79 44
f 73 46 199
f 227 40 24
f 109 31 177
f 226 251 57
f 228 237 236
f 158 260 204
f 278 236 157
f 35 242 66
f 174 233 213
f 229 233 174
f 177 31 255
f 228 178 177
f 82 81 230
f 52 225 226
f 31 1 255
f 236 229 276
f 273 269 252
f 269 26 30
f 281 24 49
f 49 24 28
f 228 236 178
f 255 209 177
f 3 6 270
f 209 271 241
f 271 209 208
f 49 273 290
f 30 253 269
f 237 158 236
f 179 275 60
f 41 3 277
f 40 3 32
f 32 41 40
f 32 3 41
f 3 105 277
f 241 260 209
f 241 271 230
f 242 241 231
f 242 231 66
f 233 229 234
f 242 35 263
f 239 241 263
f 35 264 263
f 231 95 66
f 269 253 52
f 269 52 252
f 269 49 26
f 231 81 82
f 230 81 241
f 241 81 231
f 22 18 256
f 258 243 213
f 242 263 241
f 18 15 243
f 1 31 27
f 177 209 228
f 295 251 294
f 208 230 271
f 179 276 275
f 24 40 2
f 179 60 109
f 207 209 1
f 278 229 236
f 269 273 49
f 251 225 294
f 281 290 227
f 254 60 275
f 179 178 276
f 275 174 254
f 284 40 41
f 1 2 40
f 177 179 109
f 293 208 207
f 32 40 227
f 109 29 31
f 199 44 79
f 208 209 207
f 251 57 225
f 283 40 284
f 1 24 2
f 1 209 255
f 283 1 40
f 49 290 281
f 234 229 278
f 313 314 315
f 326 325 53
f 335 65 120
f 185 94 328
f 270 108 309
f 231 82 279
f 135 126 298
f 220 320 182
f 351 361 350
f 102 144 362
f 335 332 65
f 244 345 214
f 321 67 339
f 331 141 328
f 297 374 344
f 43 339 107
f 316 322 136
f 306 373 372
f 150 139 323
f 130 121 299
f 85 84 349
f 383 346 382
f 325 385 102
f 367 96 365
f 301 312 366
f 137 325 96
f 137 53 325
f 62 65 122
f 111 313 112
f 111 118 110
f 97 71 303
f 297 374 308
f 372 371 317
f 306 372 317
f 328 69 331
f 118 168 110
f 112 319 55
f 55 375 54
f 43 107 6
f 136 135 316
f 307 306 317
f 130 389 347
f 94 48 338
f 311 342 310
f 145 144 68
f 144 102 68
f 68 69 300
f 80 386 312
f 336 112 313
f 297 344 303
f 330 376 388
f 322 393 394
f 377 21 19
f 298 323 306
f 323 324 379
f 318 143 115
f 95 279 380
f 142 318 115
f 133 149 148
f 132 121 131
f 84 85 106
f 85 349 200
f 130 346 389
f 132 396 121
f 345 391 214
f 345 343 391
f 296 297 308
f 379 378 323
f 137 386 224
f 393 345 394
f 41 207 284
f 366 312 363
f 110 312 399
f 97 340 67
f 341 371 297
f 328 338 69
f 364 145 116
f 343 371 391
f 63 62 370
f 333 334 335
f 65 67 120
f 122 332 334
f 375 43 54
f 367 386 137
f 334 123 122
f 107 339 104
f 321 339 55
f 364 124 366
f 293 207 309
f 97 64 71
f 405 147 334
f 333 335 315
f 163 328 141
f 401 336 321
f 321 112 401
f 123 147 400
f 182 53 250
f 396 342 121
f 68 300 361
f 312 80 301
f 130 299 346
f 145 358 117
f 130 131 121
f 310 356 311
f 124 333 315
f 110 368 111
f 43 114 54
f 375 55 43
f 53 182 402
f 250 180 182
f 122 123 140
f 123 334 147
f 406 370 62
f 219 163 220
f 116 117 360
f 315 336 313
f 396 397 342
f 348 131 347
f 149 348 133
f 381 348 149
f 382 349 347
f 350 382 351
f 326 53 402
f 141 220 221
f 121 342 299
f 117 359 356
f 299 311 357
f 346 357 351
f 356 304 360
f 408 116 360
f 356 360 117
f 358 145 351
f 125 364 408
f 68 102 385
f 364 365 144
f 331 385 102
f 80 110 386
f 124 363 366
f 403 120 67
f 328 94 338
f 182 221 220
f 224 183 137
f 112 55 392
f 130 347 131
f 357 358 351
f 149 148 131
f 348 77 134
f 348 347 77
f 84 77 347
f 389 383 347
f 346 351 382
f 350 300 384
f 119 305 310
f 311 359 357
f 356 310 305
f 358 359 117
f 357 130 299
f 304 356 305
f 304 408 360
f 408 304 128
f 300 350 361
f 361 351 145
f 144 145 364
f 385 325 320
f 331 385 320
f 363 301 366
f 365 366 312
f 96 325 362
f 367 365 312
f 367 137 96
f 327 224 386
f 336 120 403
f 312 366 315
f 67 321 403
f 220 141 320
f 331 320 141
f 183 250 53
f 53 137 183
f 54 112 392
f 149 131 381
f 389 346 383
f 338 48 384
f 342 354 310
f 311 299 342
f 356 359 311
f 346 130 357
f 357 359 358
f 408 364 116
f 364 125 124
f 69 338 300
f 331 69 385
f 367 312 386
f 335 120 336
f 315 314 312
f 54 392 55
f 114 6 222
f 48 200 349
f 354 342 397
f 119 310 354
f 119 354 355
f 128 124 408
f 365 96 362
f 347 383 382
f 363 312 301
f 124 315 363
f 405 334 333
f 386 110 224
f 64 67 65
f 384 300 338
f 80 312 110
f 336 315 335
f 112 336 401
f 140 123 4
f 147 405 128
f 131 348 381
f 382 350 349
f 48 349 384
f 147 128 304
f 368 110 313
f 185 328 163
f 332 335 334
f 349 84 347
f 365 364 366
f 117 116 145
f 312 314 313
f 325 102 362
f 332 122 65
f 112 321 319
f 312 313 399
f 111 54 118
f 110 168 224
f 325 326 320
f 145 68 361
f 55 319 321
f 304 123 400
f 350 384 349
f 368 313 111
f 304 400 147
f 128 405 124
f 321 336 403
f 112 54 111
f 124 405 333
f 366 363 315
f 220 163 141
f 110 399 313
f 131 148 132
f 182 320 402
f 129 322 136
f 323 139 324
f 129 322 45
f 36 322 129
f 316 393 322
f 135 136 126
f 7 298 126
f 323 298 7
f 68 385 69
f 307 135 298
f 45 322 377
f 353 380 352
f 7 150 323
f 126 136 36
f 306 307 298
f 352 379 353
f 353 324 139
f 353 139 143
f 162 142 115
f 322 398 377
f 324 353 379
f 398 394 377
f 377 19 45
f 378 306 323
f 395 318 142
f 20 10 394
f 322 394 398
f 380 353 318
f 377 394 10
f 377 10 21
f 322 36 136
f 395 142 95
f 320 326 402
f 380 318 395
f 353 143 318
f 365 362 144
f 344 374 308
f 104 108 107
f 373 329 372
f 297 371 329
f 374 297 330
f 135 307 316
f 103 409 410
f 309 344 308
f 343 393 316
f 371 343 317
f 373 306 378
f 297 329 330
f 55 339 43
f 293 308 374
f 293 388 208
f 376 379 352
f 387 341 302
f 341 297 302
f 387 297 341
f 104 339 340
f 329 371 372
f 108 104 97
f 107 270 6
f 343 316 307
f 317 343 307
f 380 395 95
f 340 97 104
f 309 308 293
f 107 108 270
f 208 388 230
f 343 345 393
f 373 378 379
f 297 303 302
f 41 277 105
f 388 376 82
f 345 244 394
f 379 376 373
f 82 376 352
f 391 404 214
f 105 3 41
f 388 82 230
f 380 279 82
f 380 82 352
f 394 15 20
f 244 15 394
f 207 41 309
f 97 344 108
f 67 64 97
f 103 303 71
f 391 341 412
f 330 329 373
f 374 388 293
f 309 41 270
f 330 388 374
f 412 341 337
f 344 97 303
f 103 302 303
f 391 371 341
f 309 108 344
f 376 330 373
f 391 337 404
f 337 391 412
f 409 103 71
f 67 340 339
f 341 387 337
f 125 408 124
f 348 134 133
f 423 407 424
f 429 310 354
f 415 432 427
f 416 265 75
f 413 433 421
f 437 265 416
f 438 418 439
f 420 425 440
f 212 74 75
f 74 51 446
f 213 214 174
f 174 214 445
f 428 354 397
f 428 397 426
f 448 274 30
f 448 444 274
f 450 432 176
f 174 445 404
f 432 450 415
f 51 414 75
f 370 442 409
f 390 302 103
f 432 443 176
f 148 149 417
f 414 425 75
f 140 406 122
f 251 295 432
f 51 247 251
f 51 212 247
f 437 413 435
f 448 29 60
f 447 134 288
f 294 452 444
f 450 175 337
f 426 148 422
f 422 423 428
f 294 444 443
f 417 435 436
f 424 428 423
f 425 418 416
f 424 354 428
f 140 370 406
f 435 437 265
f 369 5 430
f 212 75 211
f 421 417 436
f 436 413 421
f 167 127 265
f 369 407 433
f 430 5 407
f 75 127 100
f 101 211 100
f 413 416 418
f 140 5 406
f 414 51 431
f 446 75 74
f 265 434 435
f 140 5 370
f 413 437 416
f 370 5 369
f 33 438 439
f 413 436 435
f 407 5 424
f 132 148 426
f 438 369 433
f 422 148 417
f 33 370 369
f 305 356 4
f 356 305 119
f 5 140 4
f 310 356 119
f 369 430 407
f 434 265 437
f 424 5 429
f 354 424 429
f 418 425 439
f 407 417 421
f 370 33 442
f 75 446 51
f 83 447 288
f 447 417 149
f 422 417 407
f 310 429 4
f 429 5 4
f 83 265 447
f 433 418 438
f 451 123 305
f 417 447 435
f 74 212 51
f 396 132 397
f 288 134 77
f 33 369 438
f 447 149 134
f 62 122 406
f 4 451 305
f 304 305 123
f 416 75 425
f 426 397 132
f 422 428 426
f 265 435 447
f 422 407 423
f 451 4 123
f 127 75 265
f 434 437 435
f 356 310 4
f 167 265 83
f 433 413 418
f 433 407 421
f 134 149 133
f 51 432 431
f 302 411 337
f 390 411 302
f 409 63 370
f 295 294 432
f 414 440 425
f 427 431 432
f 439 425 441
f 411 390 420
f 337 411 420
f 414 427 415
f 415 440 414
f 415 420 440
f 439 441 420
f 427 414 431
f 425 420 441
f 443 432 294
f 337 387 302
f 214 404 445
f 390 419 420
f 337 420 449
f 174 337 175
f 420 415 449
f 29 109 60
f 420 419 439
f 225 452 294
f 410 390 103
f 33 410 442
f 33 390 410
f 439 419 390
f 51 251 432
f 448 60 444
f 60 176 444
f 439 390 33
f 448 30 29
f 443 444 176
f 452 253 274
f 253 452 225
f 409 442 410
f 450 176 175
f 274 444 452
f 409 71 63
f 63 71 64
f 174 404 337
f 337 449 450
f 450 449 415
